<?xml version="1.0" encoding="utf-8"?>
<!-- Generator: Adobe Illustrator 21.1.0, SVG Export Plug-In . SVG Version: 6.00 Build 0)  -->
<svg version="1.1" id="Layer_1" xmlns="http://www.w3.org/2000/svg" xmlns:xlink="http://www.w3.org/1999/xlink" x="0px" y="0px"
	 viewBox="0 0 67 67" style="enable-background:new 0 0 67 67;" xml:space="preserve">
<style type="text/css">
	.st0{opacity:0.1;fill:url(#SVGID_1_);enable-background:new    ;}
	.st1{clip-path:url(#SVGID_3_);fill:url(#SVGID_4_);}
	.st2{clip-path:url(#SVGID_6_);fill:url(#SVGID_7_);}
	.st3{clip-path:url(#SVGID_9_);fill:url(#SVGID_10_);}
	.st4{clip-path:url(#SVGID_12_);fill:url(#SVGID_13_);}
	.st5{clip-path:url(#SVGID_15_);fill:url(#SVGID_16_);}
	.st6{clip-path:url(#SVGID_18_);fill:url(#SVGID_19_);}
	.st7{clip-path:url(#SVGID_21_);fill:url(#SVGID_22_);}
	.st8{enable-background:new    ;}
	.st9{fill:url(#SVGID_23_);}
</style>
<linearGradient id="SVGID_1_" gradientUnits="userSpaceOnUse" x1="0" y1="33.5" x2="67" y2="33.5" gradientTransform="matrix(1 0 0 -1 0 67)">
	<stop  offset="0" style="stop-color:#765AA6"/>
	<stop  offset="0.1522" style="stop-color:#6E5FAA"/>
	<stop  offset="0.3839" style="stop-color:#596DB4"/>
	<stop  offset="0.6662" style="stop-color:#3785C6"/>
	<stop  offset="0.9859" style="stop-color:#07A4DE"/>
	<stop  offset="1" style="stop-color:#05A6DF"/>
</linearGradient>
<circle class="st0" cx="33.5" cy="33.5" r="33.5"/>
<g>
	<g>
		<defs>
			<path id="SVGID_2_" d="M17.1,34.7c0-0.1,0-0.2,0-0.3c-0.5-0.3-0.9-0.5-1.2-0.7c0,0.6,0,1.1,0.1,1.7c0.3-0.1,0.7-0.2,1.2-0.3
				C17.1,34.9,17.1,34.8,17.1,34.7z"/>
		</defs>
		<clipPath id="SVGID_3_">
			<use xlink:href="#SVGID_2_"  style="overflow:visible;"/>
		</clipPath>
		
			<linearGradient id="SVGID_4_" gradientUnits="userSpaceOnUse" x1="15.9" y1="34.1" x2="51.1" y2="34.1" gradientTransform="matrix(1 0 0 -1 0 67)">
			<stop  offset="0" style="stop-color:#765AA6"/>
			<stop  offset="0.1522" style="stop-color:#6E5FAA"/>
			<stop  offset="0.3839" style="stop-color:#596DB4"/>
			<stop  offset="0.6662" style="stop-color:#3785C6"/>
			<stop  offset="0.9859" style="stop-color:#07A4DE"/>
			<stop  offset="1" style="stop-color:#05A6DF"/>
		</linearGradient>
		<rect x="15.9" y="13.7" class="st1" width="35.2" height="38.4"/>
	</g>
</g>
<g>
	<g>
		<defs>
			<path id="SVGID_5_" d="M31.7,42c0-0.1,0-0.3,0-0.4c-3.7-1.4-7-3-9.8-4.5c-0.5,0.4-1.1,0.6-1.8,0.6c-0.8,0-1.6-0.3-2.1-0.9
				c-0.7,0.2-1.2,0.3-1.7,0.4c1.6,7.1,7.4,12.6,14.7,13.6c0.4-1.2,1.1-3.5,1.8-6.6C32.1,43.8,31.7,43,31.7,42z"/>
		</defs>
		<clipPath id="SVGID_6_">
			<use xlink:href="#SVGID_5_"  style="overflow:visible;"/>
		</clipPath>
		
			<linearGradient id="SVGID_7_" gradientUnits="userSpaceOnUse" x1="15.9" y1="34.1" x2="51.1" y2="34.1" gradientTransform="matrix(1 0 0 -1 0 67)">
			<stop  offset="0" style="stop-color:#765AA6"/>
			<stop  offset="0.1522" style="stop-color:#6E5FAA"/>
			<stop  offset="0.3839" style="stop-color:#596DB4"/>
			<stop  offset="0.6662" style="stop-color:#3785C6"/>
			<stop  offset="0.9859" style="stop-color:#07A4DE"/>
			<stop  offset="1" style="stop-color:#05A6DF"/>
		</linearGradient>
		<rect x="15.9" y="13.7" class="st2" width="35.2" height="38.4"/>
	</g>
</g>
<g>
	<g>
		<defs>
			<path id="SVGID_8_" d="M38.9,28.1c0,0.2,0.1,0.4,0.1,0.6c0,1.4-1,2.7-2.4,3c-0.2,2.8-0.5,5.3-0.8,7.6c1,0.4,1.7,1.3,1.9,2.4
				c3.3,1,6.7,1.8,10.1,2.2c2.1-2.9,3.3-6.4,3.3-10.3c0-4.5-1.7-8.6-4.5-11.7C44.4,24.2,41.7,26.3,38.9,28.1z"/>
		</defs>
		<clipPath id="SVGID_9_">
			<use xlink:href="#SVGID_8_"  style="overflow:visible;"/>
		</clipPath>
		
			<linearGradient id="SVGID_10_" gradientUnits="userSpaceOnUse" x1="15.9" y1="34.1" x2="51.1" y2="34.1" gradientTransform="matrix(1 0 0 -1 0 67)">
			<stop  offset="0" style="stop-color:#765AA6"/>
			<stop  offset="0.1522" style="stop-color:#6E5FAA"/>
			<stop  offset="0.3839" style="stop-color:#596DB4"/>
			<stop  offset="0.6662" style="stop-color:#3785C6"/>
			<stop  offset="0.9859" style="stop-color:#07A4DE"/>
			<stop  offset="1" style="stop-color:#05A6DF"/>
		</linearGradient>
		<rect x="15.9" y="13.7" class="st3" width="35.2" height="38.4"/>
	</g>
</g>
<g>
	<g>
		<defs>
			<path id="SVGID_11_" d="M37.9,26.3c2.7-1.7,5.2-3.7,7.4-6c-2.5-2.2-5.6-3.7-9.1-4.3c0.4,3.4,0.6,6.6,0.6,9.6
				C37.2,25.8,37.6,26,37.9,26.3z"/>
		</defs>
		<clipPath id="SVGID_12_">
			<use xlink:href="#SVGID_11_"  style="overflow:visible;"/>
		</clipPath>
		
			<linearGradient id="SVGID_13_" gradientUnits="userSpaceOnUse" x1="15.9" y1="34.1" x2="51.1" y2="34.1" gradientTransform="matrix(1 0 0 -1 0 67)">
			<stop  offset="0" style="stop-color:#765AA6"/>
			<stop  offset="0.1522" style="stop-color:#6E5FAA"/>
			<stop  offset="0.3839" style="stop-color:#596DB4"/>
			<stop  offset="0.6662" style="stop-color:#3785C6"/>
			<stop  offset="0.9859" style="stop-color:#07A4DE"/>
			<stop  offset="1" style="stop-color:#05A6DF"/>
		</linearGradient>
		<rect x="15.9" y="13.7" class="st4" width="35.2" height="38.4"/>
	</g>
</g>
<g>
	<g>
		<defs>
			<path id="SVGID_14_" d="M20.1,31.7c1.2,0,2.2,0.7,2.7,1.7c3-1,6.6-2.4,10.1-4.2c0-0.2-0.1-0.3-0.1-0.5c0-1.3,0.8-2.3,1.9-2.8
				c0-3.1-0.2-6.5-0.6-9.9c-0.2,0-0.4,0-0.6,0c-9,0-16.5,6.8-17.5,15.5c0.5,0.3,1.1,0.7,2,1.2C18.5,32,19.3,31.7,20.1,31.7z"/>
		</defs>
		<clipPath id="SVGID_15_">
			<use xlink:href="#SVGID_14_"  style="overflow:visible;"/>
		</clipPath>
		
			<linearGradient id="SVGID_16_" gradientUnits="userSpaceOnUse" x1="15.9" y1="34.1" x2="51.1" y2="34.1" gradientTransform="matrix(1 0 0 -1 0 67)">
			<stop  offset="0" style="stop-color:#765AA6"/>
			<stop  offset="0.1522" style="stop-color:#6E5FAA"/>
			<stop  offset="0.3839" style="stop-color:#596DB4"/>
			<stop  offset="0.6662" style="stop-color:#3785C6"/>
			<stop  offset="0.9859" style="stop-color:#07A4DE"/>
			<stop  offset="1" style="stop-color:#05A6DF"/>
		</linearGradient>
		<rect x="15.9" y="13.7" class="st5" width="35.2" height="38.4"/>
	</g>
</g>
<g>
	<g>
		<defs>
			<path id="SVGID_17_" d="M23.1,35.4L23.1,35.4c2.7,1.4,6,3,9.6,4.4c0.3-0.3,0.7-0.5,1.1-0.6c0.4-2.3,0.7-5,0.8-7.8
				c-0.2-0.1-0.5-0.3-0.7-0.4C30.1,32.9,26.3,34.3,23.1,35.4z"/>
		</defs>
		<clipPath id="SVGID_18_">
			<use xlink:href="#SVGID_17_"  style="overflow:visible;"/>
		</clipPath>
		
			<linearGradient id="SVGID_19_" gradientUnits="userSpaceOnUse" x1="15.9" y1="34.1" x2="51.1" y2="34.1" gradientTransform="matrix(1 0 0 -1 0 67)">
			<stop  offset="0" style="stop-color:#765AA6"/>
			<stop  offset="0.1522" style="stop-color:#6E5FAA"/>
			<stop  offset="0.3839" style="stop-color:#596DB4"/>
			<stop  offset="0.6662" style="stop-color:#3785C6"/>
			<stop  offset="0.9859" style="stop-color:#07A4DE"/>
			<stop  offset="1" style="stop-color:#05A6DF"/>
		</linearGradient>
		<rect x="15.9" y="13.7" class="st6" width="35.2" height="38.4"/>
	</g>
</g>
<g>
	<g>
		<defs>
			<path id="SVGID_20_" d="M34.7,45.1L34.7,45.1c-0.6,2.7-1.3,4.8-1.7,6.1c0.2,0,0.3,0,0.5,0c5.1,0,9.6-2.1,12.8-5.5
				c-3-0.4-6.1-1.1-9-2C36.8,44.5,35.8,45.1,34.7,45.1z"/>
		</defs>
		<clipPath id="SVGID_21_">
			<use xlink:href="#SVGID_20_"  style="overflow:visible;"/>
		</clipPath>
		
			<linearGradient id="SVGID_22_" gradientUnits="userSpaceOnUse" x1="15.9" y1="34.1" x2="51.1" y2="34.1" gradientTransform="matrix(1 0 0 -1 0 67)">
			<stop  offset="0" style="stop-color:#765AA6"/>
			<stop  offset="0.1522" style="stop-color:#6E5FAA"/>
			<stop  offset="0.3839" style="stop-color:#596DB4"/>
			<stop  offset="0.6662" style="stop-color:#3785C6"/>
			<stop  offset="0.9859" style="stop-color:#07A4DE"/>
			<stop  offset="1" style="stop-color:#05A6DF"/>
		</linearGradient>
		<rect x="15.9" y="13.7" class="st7" width="35.2" height="38.4"/>
	</g>
</g>
<g class="st8">
	<linearGradient id="SVGID_23_" gradientUnits="userSpaceOnUse" x1="0" y1="33.5" x2="67" y2="33.5">
		<stop  offset="0" style="stop-color:#765AA6"/>
		<stop  offset="0.1522" style="stop-color:#6E5FAA"/>
		<stop  offset="0.3839" style="stop-color:#596DB4"/>
		<stop  offset="0.6662" style="stop-color:#3785C6"/>
		<stop  offset="0.9859" style="stop-color:#07A4DE"/>
		<stop  offset="1" style="stop-color:#05A6DF"/>
	</linearGradient>
	<path class="st9" d="M33.5,1.6c17.6,0,31.9,14.3,31.9,31.9S51.1,65.4,33.5,65.4S1.6,51.1,1.6,33.5S15.9,1.6,33.5,1.6 M33.5,0
		C15,0,0,15,0,33.5S15,67,33.5,67S67,52,67,33.5S52,0,33.5,0L33.5,0z"/>
</g>
</svg>
